<?xml version="1.0" encoding="UTF-8" standalone="no"?>
<svg
   viewBox="0 0 128.00017 34.310501"
   version="1.1"
   id="svg6"
   sodipodi:docname="raspberrypi-original-wordmark.svg"
   width="128.00017"
   height="34.310501"
   inkscape:version="1.4.3 (0d15f750, 2025-12-25)"
   xmlns:inkscape="http://www.inkscape.org/namespaces/inkscape"
   xmlns:sodipodi="http://sodipodi.sourceforge.net/DTD/sodipodi-0.dtd"
   xmlns="http://www.w3.org/2000/svg"
   xmlns:svg="http://www.w3.org/2000/svg">
  <defs
     id="defs6" />
  <sodipodi:namedview
     id="namedview6"
     pagecolor="#ffffff"
     bordercolor="#000000"
     borderopacity="0.25"
     inkscape:showpageshadow="2"
     inkscape:pageopacity="0.0"
     inkscape:pagecheckerboard="0"
     inkscape:deskcolor="#d1d1d1"
     inkscape:zoom="0.203125"
     inkscape:cx="64"
     inkscape:cy="12.307692"
     inkscape:window-width="940"
     inkscape:window-height="502"
     inkscape:window-x="480"
     inkscape:window-y="60"
     inkscape:window-maximized="0"
     inkscape:current-layer="svg6" />
  <path
     fill="#050606"
     d="m 7.3841691,4.9940899e-4 c -0.176,0.005000001 -0.366,0.070000001 -0.582,0.23800000101 -0.527,-0.201 -1.038,-0.272 -1.495,0.137 -0.705,-0.09 -0.935,0.096 -1.108,0.313 -0.155,-0.004 -1.16,-0.157 -1.62,0.51999999 -1.157,-0.135 -1.524,0.67 -1.11,1.421 -0.235,0.36 -0.48000003,0.716 0.072,1.404 -0.195,0.383 -0.074,0.798 0.388,1.3 -0.123,0.539 0.117,0.918 0.545,1.213 -0.08,0.738 0.686,1.165 0.915,1.317 0.086,0.43 0.27,0.836 1.144,1.058 0.144,0.64 0.67,0.75 1.18,0.884 -1.682,0.9629996 -3.125,2.2299996 -3.116,5.3399996 l -0.247,0.433 c -1.92800003,1.155 -3.663,4.868 -0.95,7.886 0.177,0.945 0.474,1.624 0.739,2.376 0.396,3.026 2.98,4.443 3.661,4.61 0.999,0.748 2.062,1.46 3.502,1.958 1.3549999,1.377 2.8259999,1.903 4.3039999,1.902 h 0.065 c 1.478,0 2.948,-0.524 4.304,-1.902 1.44,-0.498 2.503,-1.209 3.502,-1.958 0.68,-0.167 3.265,-1.584 3.66,-4.61 0.265,-0.752 0.563,-1.431 0.74,-2.376 2.713,-3.018 0.978,-6.732 -0.95,-7.886 l -0.247,-0.434 c 0.01,-3.109 -1.433,-4.376 -3.115,-5.3389996 0.51,-0.135 1.034,-0.245 1.179,-0.884 0.874,-0.224 1.057,-0.63 1.144,-1.058 0.229,-0.152 0.995,-0.58 0.914,-1.317 0.429,-0.296 0.668,-0.675 0.546,-1.213 0.461,-0.503 0.583,-0.917 0.387,-1.3 0.554,-0.688 0.307,-1.043 0.072,-1.404 0.413,-0.75 0.048,-1.556 -1.11,-1.42 -0.46,-0.67799999 -1.464,-0.52499999 -1.62,-0.52099999 -0.173,-0.217 -0.403,-0.404 -1.108,-0.314 -0.458,-0.407 -0.969,-0.337 -1.496,-0.138 -0.626,-0.486 -1.039,-0.096 -1.513,0.051 -0.757,-0.244 -0.93,0.09 -1.303,0.227 -0.826,-0.172 -1.077,0.203 -1.474,0.59799999 l -0.46,-0.009 c -1.247,0.724 -1.867,2.197 -2.086,2.954 -0.219,-0.757 -0.837,-2.23 -2.082,-2.954 l -0.462,0.009 c -0.397,-0.39499999 -0.648,-0.76999999 -1.4749999,-0.59799999 -0.372,-0.137 -0.544,-0.47 -1.303,-0.227 -0.31,-0.096 -0.596,-0.297 -0.932,-0.28700000101"
     id="path1" />
  <path
     fill="#63c54d"
     d="m 4.9271691,3.1844994 c 3.307,1.679 5.2299999,3.037 6.2829999,4.194 -0.54,2.13 -3.3529999,2.226 -4.3829999,2.167 0.212,-0.097 0.387,-0.212 0.45,-0.39 -0.259,-0.181 -1.174,-0.02 -1.813,-0.373 0.245,-0.05 0.36,-0.098 0.475,-0.277 -0.604,-0.19 -1.254,-0.353 -1.637,-0.668 0.206,0.004 0.4,0.046 0.67,-0.139 -0.542,-0.286 -1.118,-0.514 -1.567,-0.952 0.28,-0.008 0.58,-0.003 0.668,-0.104 a 6.014,6.014 0 0 1 -1.258,-1.006 c 0.391,0.047 0.556,0.007 0.65,-0.06 -0.373,-0.378 -0.846,-0.697 -1.072,-1.161 0.29,0.098 0.556,0.135 0.748,-0.01 -0.128,-0.282 -0.672,-0.449 -0.987,-1.109 0.307,0.03 0.631,0.066 0.697,0 -0.143,-0.57 -0.387,-0.889 -0.625,-1.222 0.655,-0.01 1.646,0.003 1.6,-0.052 l -0.404,-0.407 c 0.64,-0.17 1.294,0.027 1.768,0.174 0.214,-0.166 -0.003,-0.376 -0.263,-0.59 a 6.508,6.508 0 0 1 1.478,0.364 c 0.238,-0.211 -0.154,-0.422 -0.343,-0.63199999 0.84,0.15599999 1.196,0.37599999 1.55,0.59599999 0.255,-0.24 0.014,-0.447 -0.16,-0.65699999 0.634,0.23099999 0.96,0.52799999 1.303,0.82299999 0.116,-0.155 0.296,-0.268 0.079,-0.642 0.45,0.256 0.788,0.557 1.038,0.893 0.2789999,-0.174 0.1659999,-0.412 0.1669999,-0.633 0.467,0.375 0.764,0.773 1.127,1.161 0.073,-0.05 0.137,-0.229 0.193,-0.51 1.114,1.064 2.69,3.746 0.405,4.81 -1.9439999,-1.58 -4.2649999,-2.727 -6.8379999,-3.588 m 17.5169999,0 c -3.308,1.679 -5.23,3.037 -6.283,4.194 0.54,2.13 3.352,2.226 4.383,2.167 -0.212,-0.097 -0.388,-0.212 -0.45,-0.39 0.259,-0.181 1.174,-0.02 1.812,-0.373 -0.245,-0.05 -0.36,-0.098 -0.474,-0.277 0.603,-0.19 1.254,-0.353 1.636,-0.668 -0.206,0.004 -0.4,0.046 -0.668,-0.139 0.54,-0.286 1.117,-0.514 1.566,-0.952 -0.28,-0.008 -0.581,-0.003 -0.67,-0.104 a 6.007,6.007 0 0 0 1.26,-1.006 c -0.391,0.047 -0.557,0.007 -0.652,-0.06 0.374,-0.378 0.848,-0.697 1.074,-1.161 -0.29,0.097 -0.556,0.135 -0.748,-0.01 0.127,-0.282 0.672,-0.449 0.986,-1.109 -0.306,0.03 -0.63,0.066 -0.696,0 0.142,-0.57 0.387,-0.89 0.625,-1.222 -0.655,-0.01 -1.646,0.002 -1.602,-0.052 l 0.406,-0.407 c -0.64,-0.17 -1.294,0.027 -1.768,0.174 -0.214,-0.166 0.003,-0.377 0.262,-0.59 a 6.531,6.531 0 0 0 -1.477,0.364 c -0.238,-0.211 0.154,-0.423 0.342,-0.63299999 -0.84,0.15699999 -1.195,0.37699999 -1.549,0.59799999 -0.256,-0.243 -0.014,-0.448 0.159,-0.65799999 -0.633,0.22999999 -0.96,0.52799999 -1.302,0.82199999 -0.116,-0.154 -0.296,-0.268 -0.08,-0.64 a 3.288,3.288 0 0 0 -1.037,0.892 c -0.279,-0.174 -0.166,-0.412 -0.168,-0.633 -0.467,0.375 -0.763,0.773 -1.126,1.161 -0.073,-0.052 -0.137,-0.23 -0.193,-0.51 -1.115,1.063 -2.69,3.746 -0.405,4.81 1.942,-1.58 4.263,-2.728 6.837,-3.588"
     id="path2" />
  <path
     fill="#c51850"
     d="m 17.684169,24.867499 c 0.011,1.986 -1.753,3.605 -3.94,3.616 -2.188,0.011 -3.9699999,-1.592 -3.9809999,-3.58 v -0.036 c -0.012,-1.988 1.7509999,-3.607 3.9399999,-3.617 2.186,-0.01 3.97,1.591 3.98,3.579 v 0.038 m -6.175,-10.278 c 1.641,1.058 1.937,3.46 0.662,5.362 -1.278,1.902 -3.6429999,2.586 -5.2839999,1.527 -1.641,-1.059 -1.938,-3.46 -0.662,-5.363 1.277,-1.902 3.643,-2.586 5.2829999,-1.526 m 4.431,-0.192 c -1.641,1.058 -1.937,3.46 -0.662,5.363 1.277,1.901 3.643,2.586 5.283,1.526 1.642,-1.059 1.938,-3.46 0.662,-5.362 -1.277,-1.903 -3.642,-2.586 -5.283,-1.527 m -12.5319999,1.934 c 1.772,-0.467 0.598,7.22 -0.844,6.59 -1.58600003,-1.257 -2.09700003,-4.935 0.844,-6.59 m 20.4789999,-0.096 c -1.773,-0.467 -0.599,7.221 0.844,6.591 1.586,-1.257 2.097,-4.936 -0.844,-6.59 m -5.944,-5.738 c 3.058,-0.5089996 5.603,1.281 5.5,4.547 -0.1,1.253 -6.627,-4.36 -5.5,-4.547 m -8.4499999,-0.095 c -3.059,-0.5099996 -5.602,1.28 -5.5,4.547 0.102,1.253 6.6269999,-4.36 5.5,-4.547 M 13.704169,9.6414994 c -1.824,-0.046 -3.576,1.3339996 -3.58,2.1349996 -0.006,0.974 1.442,1.97 3.593,1.996 2.196,0.015 3.598,-0.799 3.605,-1.803 0.008,-1.138 -1.998,-2.3449996 -3.618,-2.3279996 m 0.141,19.9599996 c 1.592,-0.069 3.728,0.505 3.732,1.265 0.026,0.738 -1.937,2.407 -3.837,2.375 -1.967,0.083 -3.8959999,-1.588 -3.8719999,-2.167 -0.028,-0.849 2.3969999,-1.513 3.9769999,-1.474 m -5.8889999,-4.507 c 1.133,1.345 1.65,3.707 0.706,4.403 -0.896,0.532 -3.068,0.313 -4.613,-1.872 -1.041,-1.833 -0.907,-3.699 -0.176,-4.247 1.094,-0.656 2.783,0.23 4.083,1.716 m 11.4059999,-0.426 c -1.225,1.415 -1.908,3.994 -1.013,4.825 0.855,0.645 3.15,0.555 4.846,-1.763 1.231,-1.555 0.819,-4.154 0.116,-4.845 -1.046,-0.795 -2.545,0.223 -3.949,1.783"
     id="path3" />
  <path
     fill="#231f20"
     d="m 32.919169,15.195499 h 2.01 c 0.655,0 1.143,-0.138 1.464,-0.414 0.322,-0.277 0.484,-0.687 0.484,-1.23 0,-0.532 -0.162,-0.955 -0.483,-1.27 -0.322,-0.313 -0.797,-0.47 -1.425,-0.47 h -2.052 z m 0,1.796 v 4.646 h -2.332 v -11.622 h 4.383 c 1.325,0 2.361,0.303 3.109,0.907 0.748,0.604 1.121,1.446 1.121,2.527 0,0.6 -0.156,1.117 -0.47,1.547 -0.315,0.432 -0.775,0.781 -1.381,1.046 0.686,0.203 1.18,0.54 1.48,1.014 0.3,0.474 0.452,1.06 0.452,1.757 v 0.853 c 0,0.326 0.043,0.664 0.13,1.019 0.089,0.353 0.24,0.616 0.452,0.786 v 0.167 h -2.403 c -0.212,-0.17 -0.351,-0.455 -0.415,-0.853 a 7.185,7.185 0 0 1 -0.096,-1.134 v -0.822 c 0,-0.58 -0.158,-1.03 -0.475,-1.354 -0.316,-0.321 -0.762,-0.483 -1.336,-0.483 h -2.22 m 11.224,3.09 c 0.41,0 0.774,-0.101 1.094,-0.304 0.319,-0.202 0.535,-0.436 0.646,-0.702 v -1.221 h -1.301 c -0.495,0 -0.87,0.123 -1.125,0.37 a 1.204,1.204 0 0 0 -0.384,0.899 0.9,0.9 0 0 0 0.287,0.694 c 0.192,0.176 0.453,0.264 0.783,0.264 z m 2.13,1.556 a 4.888,4.888 0 0 1 -0.218,-0.622 4.33,4.33 0 0 1 -0.132,-0.67 3.216,3.216 0 0 1 -0.945,1.045 c -0.392,0.277 -0.86,0.415 -1.402,0.415 -0.905,0 -1.602,-0.233 -2.091,-0.698 -0.49,-0.467 -0.735,-1.101 -0.735,-1.904 0,-0.846 0.326,-1.502 0.978,-1.968 0.652,-0.466 1.603,-0.698 2.854,-0.698 h 1.301 v -0.687 c 0,-0.415 -0.108,-0.737 -0.327,-0.965 -0.218,-0.23 -0.54,-0.344 -0.966,-0.344 -0.378,0 -0.669,0.092 -0.874,0.275 -0.206,0.185 -0.308,0.438 -0.308,0.763 l -2.25,-0.009 -0.009,-0.047 c -0.036,-0.73 0.28,-1.358 0.95,-1.888 0.671,-0.53 1.552,-0.794 2.642,-0.794 1.033,0 1.871,0.262 2.516,0.785 0.643,0.525 0.965,1.272 0.965,2.24 v 3.567 c 0,0.405 0.03,0.785 0.092,1.141 0.06,0.358 0.157,0.71 0.29,1.063 h -2.33 m 8.382,-2.377 c 0,-0.256 -0.124,-0.478 -0.371,-0.664 -0.248,-0.186 -0.707,-0.35 -1.378,-0.495 -1.02,-0.207 -1.79,-0.515 -2.31,-0.922 -0.519,-0.407 -0.778,-0.962 -0.778,-1.664 0,-0.745 0.312,-1.378 0.937,-1.896 0.626,-0.519 1.462,-0.778 2.511,-0.778 1.101,0 1.979,0.258 2.63,0.774 0.651,0.516 0.965,1.168 0.938,1.955 l -0.015,0.048 h -2.252 c 0,-0.345 -0.11,-0.627 -0.331,-0.846 -0.221,-0.217 -0.545,-0.327 -0.97,-0.327 -0.378,0 -0.675,0.092 -0.89,0.276 a 0.87,0.87 0 0 0 -0.324,0.69 c 0,0.266 0.113,0.485 0.34,0.655 0.227,0.17 0.685,0.321 1.377,0.455 1.063,0.212 1.854,0.525 2.37,0.938 0.517,0.412 0.775,0.98 0.775,1.703 0,0.778 -0.333,1.412 -0.998,1.905 -0.665,0.492 -1.543,0.737 -2.634,0.737 -1.15,0 -2.058,-0.29 -2.727,-0.873 -0.667,-0.582 -0.985,-1.247 -0.953,-1.991 l 0.016,-0.048 h 2.132 c 0.015,0.462 0.167,0.797 0.455,1.005 0.287,0.208 0.662,0.312 1.125,0.312 0.43,0 0.76,-0.086 0.985,-0.256 a 0.823,0.823 0 0 0 0.34,-0.695 m 9.22,-1.88 c 0,-0.815 -0.136,-1.475 -0.408,-1.982 -0.271,-0.506 -0.686,-0.76 -1.245,-0.76 -0.35,0 -0.651,0.073 -0.898,0.217 a 1.545,1.545 0 0 0 -0.586,0.615 v 3.79 c 0.143,0.245 0.34,0.431 0.586,0.56 0.248,0.127 0.553,0.191 0.914,0.191 0.564,0 0.978,-0.221 1.242,-0.664 0.263,-0.442 0.395,-1.041 0.395,-1.798 z m 2.331,0.18 c 0,1.277 -0.296,2.305 -0.886,3.081 -0.591,0.778 -1.416,1.166 -2.476,1.166 a 2.77,2.77 0 0 1 -1.204,-0.251 2.479,2.479 0 0 1 -0.902,-0.738 v 4.142 h -2.325 v -11.958 h 2.1 l 0.136,1.021 c 0.255,-0.378 0.563,-0.669 0.922,-0.874 0.358,-0.205 0.778,-0.307 1.257,-0.307 1.07,0 1.9,0.418 2.49,1.253 0.59,0.835 0.887,1.934 0.887,3.298 v 0.167 m 6.906,-0.168 c 0,-0.847 -0.124,-1.516 -0.372,-2.012 -0.247,-0.494 -0.669,-0.743 -1.264,-0.743 -0.363,0 -0.669,0.076 -0.92,0.23 a 1.584,1.584 0 0 0 -0.59,0.654 v 3.678 c 0.144,0.262 0.342,0.463 0.595,0.602 0.253,0.14 0.563,0.21 0.93,0.21 0.602,0 1.022,-0.213 1.261,-0.64 0.24,-0.425 0.36,-1.03 0.36,-1.811 z m 2.322,0.168 c 0,1.287 -0.287,2.317 -0.861,3.089 -0.575,0.77 -1.405,1.157 -2.491,1.157 -0.5,0 -0.938,-0.105 -1.313,-0.315 a 2.716,2.716 0 0 1 -0.954,-0.922 l -0.176,1.07 h -1.996 V 9.1834994 h 2.324 v 4.7339996 a 2.64,2.64 0 0 1 0.898,-0.798 2.503,2.503 0 0 1 1.2,-0.279 c 1.096,0 1.932,0.413 2.508,1.241 0.574,0.828 0.862,1.93 0.862,3.309 v 0.168 m 5.053,-2.923 c -0.432,0 -0.772,0.165 -1.022,0.495 -0.25,0.33 -0.405,0.765 -0.463,1.302 l 0.023,0.04 h 2.859 v -0.207 c 0,-0.496 -0.116,-0.89 -0.347,-1.186 -0.232,-0.296 -0.582,-0.444 -1.05,-0.444 z m 0.207,7.17 c -1.245,0 -2.24,-0.4 -2.985,-1.198 -0.746,-0.798 -1.118,-1.812 -1.118,-3.042 v -0.319 c 0,-1.283 0.353,-2.34 1.058,-3.17 0.705,-0.83 1.65,-1.241 2.838,-1.236 1.165,0 2.07,0.35 2.714,1.052 0.643,0.703 0.965,1.653 0.965,2.851 v 1.27 h -5.156 l -0.016,0.047 c 0.043,0.567 0.232,1.034 0.57,1.4 0.338,0.365 0.798,0.548 1.378,0.548 0.515,0 0.944,-0.052 1.285,-0.156 a 5.91,5.91 0 0 0 1.117,-0.49 l 0.631,1.44 c -0.351,0.289 -0.811,0.527 -1.382,0.717 a 5.988,5.988 0 0 1 -1.898,0.285 m 9.371,-6.8 -0.855,-0.025 c -0.346,0 -0.63,0.072 -0.853,0.215 a 1.367,1.367 0 0 0 -0.511,0.607 v 5.836 h -2.324 v -8.637 h 2.164 l 0.103,1.276 c 0.202,-0.452 0.464,-0.805 0.787,-1.057 0.322,-0.253 0.694,-0.38 1.114,-0.38 0.117,0 0.224,0.01 0.323,0.028 0.098,0.019 0.198,0.041 0.3,0.069 l -0.248,2.067 m 5.723,0 -0.854,-0.024 c -0.347,0 -0.63,0.072 -0.854,0.215 a 1.365,1.365 0 0 0 -0.51,0.607 v 5.835 h -2.324 v -8.636 h 2.163 l 0.104,1.276 c 0.202,-0.452 0.465,-0.805 0.786,-1.057 0.322,-0.253 0.694,-0.38 1.114,-0.38 0.117,0 0.224,0.01 0.323,0.028 a 4.3,4.3 0 0 1 0.3,0.069 l -0.248,2.067 m 4.518001,3.01 0.095,0.479 h 0.05 l 1.651,-5.492 h 2.506 l -3.504,9.93 a 4.578,4.578 0 0 1 -0.998,1.56 c -0.420001,0.423 -1.050001,0.635 -1.891001,0.635 -0.197,0 -0.379,-0.016 -0.547,-0.048 a 13.39,13.39 0 0 1 -0.61,-0.135 l 0.27,-1.701 0.225,0.032 c 0.08,0.011 0.152,0.015 0.215,0.015 0.384,0 0.679,-0.094 0.886,-0.282 0.208,-0.19 0.367,-0.425 0.48,-0.707 l 0.27,-0.67 -3.065,-8.63 h 2.506 l 1.461001,5.013 m 11.83,-2.387 h 2.299 c 0.648,0 1.14,-0.176 1.477,-0.53 0.335,-0.354 0.502,-0.806 0.502,-1.353 0,-0.56 -0.166,-1.02 -0.499,-1.386 -0.331,-0.364 -0.825,-0.546 -1.48,-0.546 h -2.299 z m 0,1.797 v 4.214 h -2.332 v -11.621 h 4.63 c 1.337,0 2.387,0.342 3.154,1.022 0.767,0.682 1.15,1.578 1.15,2.69 0,1.113 -0.383,2.007 -1.15,2.683 -0.767,0.676 -1.817,1.014 -3.153,1.014 h -2.299 m 10.578,4.214 h -2.333 v -8.636 h 2.333 z m 0,-10.704 h -2.333 V 9.1854994 h 2.333 v 1.7499996"
     id="path4" />
  <path
     fill="#181818"
     d="m 126.18517,11.486499 a 1.513,1.513 0 1 1 0,-3.0259996 1.513,1.513 0 0 1 0,3.0259996 z m 0,-3.3279996 a 1.8155,1.8155 0 1 0 0,3.6309996 1.815,1.815 0 0 0 0,-3.6299996"
     id="path5" />
  <path
     fill="#181818"
     d="m 125.84717,9.8584994 h 0.467 c 0.192,0 0.295,-0.082 0.295,-0.278 0,-0.187 -0.103,-0.269 -0.294,-0.269 h -0.467 z m -0.426,-0.879 h 1.047 c 0.348,0 0.568,0.242 0.568,0.535 0,0.23 -0.093,0.4 -0.308,0.4879996 v 0.005 c 0.21,0.054 0.27,0.258 0.284,0.454 0.007,0.122 0.004,0.35 0.08,0.459 h -0.426 c -0.052,-0.123 -0.046,-0.31 -0.067,-0.465 -0.03,-0.204 -0.11,-0.293 -0.324,-0.293 h -0.428 v 0.76 h -0.426 V 8.9794994"
     id="path6" />
</svg>
